Coordinates
version=1
nRows=9
nColumns=24
inDegrees=yes

Units are S.I. units (second, meters, Newtons, ...)
Angles are in degrees.

endheader
time	pelvis_tilt	pelvis_list	pelvis_rotation	pelvis_tx	pelvis_ty	pelvis_tz	hip_flexion_r	hip_adduction_r	hip_rotation_r	knee_angle_r	ankle_angle_r	subtalar_angle_r	mtp_angle_r	hip_flexion_l	hip_adduction_l	hip_rotation_l	knee_angle_l	ankle_angle_l	subtalar_angle_l	mtp_angle_l	lumbar_extension	lumbar_bending	lumbar_rotation
      1.70366667	      1.11981530	     10.74211779	     -6.60183785	      1.34697999	      1.00078591	      0.26895534	     11.83567180	    -14.83740541	      1.42578617	    -68.03221522	     -5.87181060	    -10.45565776	      4.66374043	     10.17584577	     15.88026975	      4.92982737	    -17.46300823	      3.68476251	    -21.48267475	     -4.48798116	    -12.91193289	     -6.24519679	      1.95315470
      1.70783333	      1.18764163	     10.55160583	     -6.43460815	      1.35190971	      1.00192498	      0.26864106	     12.29969644	    -14.54601969	      1.46318843	    -67.79048294	     -4.65009659	     -9.98175219	      4.66610453	      9.48412123	     15.76109615	      5.32281377	    -16.97664069	      3.66401662	    -21.58112284	     -4.47715106	    -13.01656929	     -5.94128571	      1.59629237
      1.71200000	      1.24748773	     10.37041523	     -6.28572158	      1.35679903	      1.00300706	      0.26834667	     12.77862263	    -14.26374527	      1.51895112	    -67.51548973	     -3.46295067	     -9.52398051	      4.66296892	      8.80664362	     15.64100034	      5.69179309	    -16.48235999	      3.63430328	    -21.67076914	     -4.46744992	    -13.11341880	     -5.65322524	      1.27130568
      1.71616667	      1.32492459	     10.20170678	     -6.14186342	      1.36170141	      1.00407672	      0.26805828	     13.23076408	    -14.00322986	      1.57121778	    -67.19718779	     -2.32286168	     -9.08217174	      4.64867371	      8.10249276	     15.53044463	      6.06718211	    -15.96596211	      3.58511977	    -21.78319139	     -4.46133418	    -13.21885105	     -5.37784684	      0.92713582
      1.72033333	      1.40439761	     10.03718365	     -6.00323333	      1.36659034	      1.00509555	      0.26778506	     13.67740763	    -13.74803781	      1.62405198	    -66.84427378	     -1.22647492	     -8.71178439	      4.60513013	      7.40336175	     15.41853466	      6.43727001	    -15.45322386	      3.49147732	    -21.93968813	     -4.45508574	    -13.33814855	     -5.11846905	      0.58458757
      1.72450000	      1.47372422	      9.87030950	     -5.86528024	      1.37148256	      1.00606337	      0.26751905	     14.12762831	    -13.48865172	      1.68216037	    -66.45046616	     -0.20914786	     -8.34498170	      4.55564458	      6.71641808	     15.29541270	      6.79172965	    -14.94768504	      3.45173150	    -22.03997502	     -4.45024170	    -13.43564011	     -4.85384795	      0.28300117
      1.72866667	      1.54210364	      9.68761717	     -5.73486049	      1.37633881	      1.00699917	      0.26726933	     14.56482092	    -13.21071528	      1.74366190	    -66.00379434	      0.74403809	     -7.98661774	      4.52193717	      6.03840663	     15.14484170	      7.11358027	    -14.44131895	      3.44892855	    -22.08796554	     -4.44733633	    -13.53443202	     -4.56214285	      0.03288130
      1.73283333	      1.60143798	      9.52743331	     -5.61251396	      1.38121679	      1.00785038	      0.26704149	     15.01652881	    -12.95613499	      1.81694579	    -65.53625011	      1.65045605	     -7.70233659	      4.47329204	      5.37062318	     15.01317027	      7.43210928	    -13.93617290	      3.40666422	    -22.17558769	     -4.44624477	    -13.61944308	     -4.30943713	     -0.24688480
      1.73700000	      1.68057534	      9.38575176	     -5.49334738	      1.38608005	      1.00867381	      0.26681654	     15.43977155	    -12.73282557	      1.88162964	    -65.03143847	      2.52487771	     -7.43577751	      4.41454114	      4.68775652	     14.89826887	      7.74705420	    -13.42813711	      3.34997881	    -22.27667213	     -4.44583691	    -13.72349029	     -4.08020902	     -0.53007891
